<mxfile host="app.diagrams.net" agent="Mozilla/5.0 (Windows NT 10.0; Win64; x64) AppleWebKit/537.36 (KHTML, like Gecko) Chrome/128.0.0.0 Safari/537.36" version="24.7.7">
  <diagram name="Página-1" id="APbT7lsQblCrBqvB5Vlu">
    <mxGraphModel dx="1434" dy="786" grid="1" gridSize="10" guides="1" tooltips="1" connect="1" arrows="1" fold="1" page="1" pageScale="1" pageWidth="827" pageHeight="1169" math="0" shadow="0">
      <root>
        <mxCell id="0" />
        <mxCell id="1" parent="0" />
        <mxCell id="U4eYH-IfSYCv08nCtTG3-3" value="" style="edgeStyle=orthogonalEdgeStyle;rounded=0;orthogonalLoop=1;jettySize=auto;html=1;" edge="1" parent="1" source="U4eYH-IfSYCv08nCtTG3-1" target="U4eYH-IfSYCv08nCtTG3-2">
          <mxGeometry relative="1" as="geometry" />
        </mxCell>
        <mxCell id="U4eYH-IfSYCv08nCtTG3-1" value="INICIO" style="ellipse;whiteSpace=wrap;html=1;" vertex="1" parent="1">
          <mxGeometry x="240" y="130" width="120" height="80" as="geometry" />
        </mxCell>
        <mxCell id="U4eYH-IfSYCv08nCtTG3-5" value="" style="edgeStyle=orthogonalEdgeStyle;rounded=0;orthogonalLoop=1;jettySize=auto;html=1;" edge="1" parent="1" source="U4eYH-IfSYCv08nCtTG3-2" target="U4eYH-IfSYCv08nCtTG3-4">
          <mxGeometry relative="1" as="geometry" />
        </mxCell>
        <mxCell id="U4eYH-IfSYCv08nCtTG3-2" value="NOTA 1&lt;div&gt;NOTA 2&lt;/div&gt;&lt;div&gt;NOTA 3&lt;/div&gt;&lt;div&gt;MÉDIA&lt;/div&gt;" style="shape=hexagon;perimeter=hexagonPerimeter2;whiteSpace=wrap;html=1;fixedSize=1;" vertex="1" parent="1">
          <mxGeometry x="240" y="240" width="120" height="80" as="geometry" />
        </mxCell>
        <mxCell id="U4eYH-IfSYCv08nCtTG3-7" value="" style="edgeStyle=orthogonalEdgeStyle;rounded=0;orthogonalLoop=1;jettySize=auto;html=1;" edge="1" parent="1" source="U4eYH-IfSYCv08nCtTG3-4" target="U4eYH-IfSYCv08nCtTG3-6">
          <mxGeometry relative="1" as="geometry" />
        </mxCell>
        <mxCell id="U4eYH-IfSYCv08nCtTG3-4" value="LER&amp;nbsp; NOTA 1&lt;div&gt;&lt;span style=&quot;background-color: initial;&quot;&gt;&amp;nbsp; &amp;nbsp; &amp;nbsp; &amp;nbsp; NOTA 2&lt;/span&gt;&lt;/div&gt;&lt;div&gt;&amp;nbsp; &amp;nbsp; &amp;nbsp; &amp;nbsp; NOTA 3&lt;/div&gt;" style="shape=parallelogram;perimeter=parallelogramPerimeter;whiteSpace=wrap;html=1;fixedSize=1;align=center;" vertex="1" parent="1">
          <mxGeometry x="225" y="360" width="150" height="60" as="geometry" />
        </mxCell>
        <mxCell id="U4eYH-IfSYCv08nCtTG3-9" value="" style="edgeStyle=orthogonalEdgeStyle;rounded=0;orthogonalLoop=1;jettySize=auto;html=1;" edge="1" parent="1" source="U4eYH-IfSYCv08nCtTG3-6" target="U4eYH-IfSYCv08nCtTG3-8">
          <mxGeometry relative="1" as="geometry" />
        </mxCell>
        <mxCell id="U4eYH-IfSYCv08nCtTG3-6" value="MÉDIA = (NOTA 1 + NOTA 2 + NOTA 3) / 3" style="rounded=0;whiteSpace=wrap;html=1;" vertex="1" parent="1">
          <mxGeometry x="210" y="460" width="180" height="60" as="geometry" />
        </mxCell>
        <mxCell id="U4eYH-IfSYCv08nCtTG3-11" value="" style="edgeStyle=orthogonalEdgeStyle;rounded=0;orthogonalLoop=1;jettySize=auto;html=1;" edge="1" parent="1" source="U4eYH-IfSYCv08nCtTG3-8" target="U4eYH-IfSYCv08nCtTG3-10">
          <mxGeometry relative="1" as="geometry" />
        </mxCell>
        <mxCell id="U4eYH-IfSYCv08nCtTG3-8" value="EXIBIR&amp;nbsp; MÉDIA" style="shape=parallelogram;perimeter=parallelogramPerimeter;whiteSpace=wrap;html=1;fixedSize=1;" vertex="1" parent="1">
          <mxGeometry x="225" y="560" width="150" height="60" as="geometry" />
        </mxCell>
        <mxCell id="U4eYH-IfSYCv08nCtTG3-10" value="FIM" style="ellipse;whiteSpace=wrap;html=1;" vertex="1" parent="1">
          <mxGeometry x="240" y="660" width="120" height="80" as="geometry" />
        </mxCell>
      </root>
    </mxGraphModel>
  </diagram>
</mxfile>
